<svg xmlns="http://www.w3.org/2000/svg" xmlns:xlink="http://www.w3.org/1999/xlink" viewBox="0,0,256,256" width="40px" height="40px"><g fill="#f7f7f7" fill-rule="nonzero" stroke="none" stroke-width="1" stroke-linecap="butt" stroke-linejoin="miter" stroke-miterlimit="10" stroke-dasharray="" stroke-dashoffset="0" font-family="none" font-weight="none" font-size="none" text-anchor="none" style="mix-blend-mode: normal"><path d="M64,256c-35.34622,0 -64,-28.65378 -64,-64v-128c0,-35.34622 28.65378,-64 64,-64h128c35.34622,0 64,28.65378 64,64v128c0,35.34622 -28.65378,64 -64,64z" id="shape"></path></g><g fill="none" fill-rule="nonzero" stroke="none" stroke-width="1" stroke-linecap="butt" stroke-linejoin="miter" stroke-miterlimit="10" stroke-dasharray="" stroke-dashoffset="0" font-family="none" font-weight="none" font-size="none" text-anchor="none" style="mix-blend-mode: normal"><g transform="scale(5.33333,5.33333)"><path d="M25,15l-6.5,-11l-6.5,11z" fill="#1c1c1c"></path><path d="M38,15l-6.5,-11l-6.5,11z" fill="#666666"></path><path d="M18.5,4l6.5,11l6.5,-11z" fill="#383838"></path><path d="M12,15l6.5,11l6.5,-11z" fill="#383838"></path><path d="M25,33l6.5,11l6.5,-11z" fill="#1c1c1c"></path><path d="M12,33l6.5,11l6.5,-11z" fill="#666666"></path><path d="M31.5,44l-6.5,-11l-6.5,11z" fill="#383838"></path><path d="M38,33l-6.5,-11l-6.5,11z" fill="#383838"></path></g></g></svg>